<svg xmlns="http://www.w3.org/2000/svg" xmlns:xlink="http://www.w3.org/1999/xlink" width="150" zoomAndPan="magnify" viewBox="0 0 112.5 30.000001" height="40" preserveAspectRatio="xMidYMid meet" version="1.0"><defs><g/><clipPath id="01a1dcace5"><path d="M 1.574219 8 L 16 8 L 16 25 L 1.574219 25 Z M 1.574219 8 " clip-rule="nonzero"/></clipPath><clipPath id="aa086f5f7a"><path d="M 103 17 L 110.445312 17 L 110.445312 25 L 103 25 Z M 103 17 " clip-rule="nonzero"/></clipPath><clipPath id="9933a5ade5"><path d="M 11.449219 4.5 L 34.800781 4.5 L 34.800781 28.582031 L 11.449219 28.582031 Z M 11.449219 4.5 " clip-rule="nonzero"/></clipPath></defs><g clip-path="url(#01a1dcace5)"><g fill="#000000" fill-opacity="1"><g transform="translate(0.972089, 24.239559)"><g><path d="M 10.015625 -11.515625 C 9.003906 -11.515625 8.140625 -11.144531 7.421875 -10.40625 C 6.703125 -9.664062 6.34375 -8.769531 6.34375 -7.71875 C 6.34375 -6.65625 6.703125 -5.753906 7.421875 -5.015625 C 8.140625 -4.273438 9.003906 -3.90625 10.015625 -3.90625 C 10.492188 -3.90625 10.945312 -3.960938 11.375 -4.078125 C 11.8125 -4.203125 12.128906 -4.328125 12.328125 -4.453125 L 12.59375 -4.625 L 14.40625 -0.9375 C 14.257812 -0.832031 14.0625 -0.703125 13.8125 -0.546875 C 13.5625 -0.398438 12.988281 -0.195312 12.09375 0.0625 C 11.207031 0.320312 10.253906 0.453125 9.234375 0.453125 C 6.960938 0.453125 4.96875 -0.34375 3.25 -1.9375 C 1.539062 -3.53125 0.6875 -5.441406 0.6875 -7.671875 C 0.6875 -9.910156 1.539062 -11.835938 3.25 -13.453125 C 4.96875 -15.066406 6.960938 -15.875 9.234375 -15.875 C 10.253906 -15.875 11.191406 -15.753906 12.046875 -15.515625 C 12.910156 -15.273438 13.523438 -15.035156 13.890625 -14.796875 L 14.40625 -14.4375 L 12.59375 -10.796875 C 11.9375 -11.273438 11.078125 -11.515625 10.015625 -11.515625 Z M 10.015625 -11.515625 "/></g></g></g></g><g fill="#000000" fill-opacity="1"><g transform="translate(12.964491, 24.239559)"><g><path d="M 3.25 -1.828125 C 1.539062 -3.359375 0.6875 -5.3125 0.6875 -7.6875 C 0.6875 -10.070312 1.578125 -12.03125 3.359375 -13.5625 C 5.148438 -15.101562 7.359375 -15.875 9.984375 -15.875 C 12.566406 -15.875 14.742188 -15.101562 16.515625 -13.5625 C 18.296875 -12.019531 19.1875 -10.066406 19.1875 -7.703125 C 19.1875 -5.335938 18.316406 -3.382812 16.578125 -1.84375 C 14.847656 -0.3125 12.648438 0.453125 9.984375 0.453125 C 7.210938 0.453125 4.96875 -0.304688 3.25 -1.828125 Z M 7.375 -10.3125 C 6.6875 -9.632812 6.34375 -8.765625 6.34375 -7.703125 C 6.34375 -6.640625 6.671875 -5.769531 7.328125 -5.09375 C 7.992188 -4.425781 8.867188 -4.09375 9.953125 -4.09375 C 10.992188 -4.09375 11.847656 -4.429688 12.515625 -5.109375 C 13.191406 -5.785156 13.53125 -6.648438 13.53125 -7.703125 C 13.53125 -8.765625 13.179688 -9.632812 12.484375 -10.3125 C 11.796875 -10.988281 10.953125 -11.328125 9.953125 -11.328125 C 8.929688 -11.328125 8.070312 -10.988281 7.375 -10.3125 Z M 7.375 -10.3125 "/></g></g></g><g fill="#000000" fill-opacity="1"><g transform="translate(30.066745, 24.239559)"><g><path d="M 1.796875 0 L 1.796875 -15.421875 L 7.125 -15.421875 L 7.125 -13.796875 L 7.1875 -13.796875 C 8.570312 -15.179688 10.046875 -15.875 11.609375 -15.875 C 12.367188 -15.875 13.125 -15.769531 13.875 -15.5625 C 14.625 -15.363281 15.34375 -15.054688 16.03125 -14.640625 C 16.726562 -14.222656 17.289062 -13.625 17.71875 -12.84375 C 18.15625 -12.070312 18.375 -11.175781 18.375 -10.15625 L 18.375 0 L 13.046875 0 L 13.046875 -8.71875 C 13.046875 -9.519531 12.789062 -10.21875 12.28125 -10.8125 C 11.769531 -11.414062 11.101562 -11.71875 10.28125 -11.71875 C 9.476562 -11.71875 8.75 -11.40625 8.09375 -10.78125 C 7.445312 -10.164062 7.125 -9.476562 7.125 -8.71875 L 7.125 0 Z M 1.796875 0 "/></g></g></g><g fill="#000000" fill-opacity="1"><g transform="translate(47.169, 24.239559)"><g><path d="M 17.40625 -6.96875 L 6.21875 -6.96875 C 6.21875 -5.882812 6.566406 -5.082031 7.265625 -4.5625 C 7.972656 -4.039062 8.738281 -3.78125 9.5625 -3.78125 C 10.425781 -3.78125 11.109375 -3.894531 11.609375 -4.125 C 12.109375 -4.363281 12.675781 -4.820312 13.3125 -5.5 L 17.171875 -3.578125 C 15.566406 -0.890625 12.898438 0.453125 9.171875 0.453125 C 6.847656 0.453125 4.851562 -0.34375 3.1875 -1.9375 C 1.519531 -3.53125 0.6875 -5.445312 0.6875 -7.6875 C 0.6875 -9.9375 1.519531 -11.863281 3.1875 -13.46875 C 4.851562 -15.070312 6.847656 -15.875 9.171875 -15.875 C 11.617188 -15.875 13.609375 -15.164062 15.140625 -13.75 C 16.671875 -12.34375 17.4375 -10.328125 17.4375 -7.703125 C 17.4375 -7.335938 17.425781 -7.09375 17.40625 -6.96875 Z M 6.375 -9.921875 L 12.234375 -9.921875 C 12.117188 -10.722656 11.800781 -11.335938 11.28125 -11.765625 C 10.769531 -12.203125 10.113281 -12.421875 9.3125 -12.421875 C 8.4375 -12.421875 7.738281 -12.1875 7.21875 -11.71875 C 6.695312 -11.257812 6.414062 -10.660156 6.375 -9.921875 Z M 6.375 -9.921875 "/></g></g></g><g fill="#000000" fill-opacity="1"><g transform="translate(62.527893, 24.239559)"><g><path d="M 10.015625 -11.515625 C 9.003906 -11.515625 8.140625 -11.144531 7.421875 -10.40625 C 6.703125 -9.664062 6.34375 -8.769531 6.34375 -7.71875 C 6.34375 -6.65625 6.703125 -5.753906 7.421875 -5.015625 C 8.140625 -4.273438 9.003906 -3.90625 10.015625 -3.90625 C 10.492188 -3.90625 10.945312 -3.960938 11.375 -4.078125 C 11.8125 -4.203125 12.128906 -4.328125 12.328125 -4.453125 L 12.59375 -4.625 L 14.40625 -0.9375 C 14.257812 -0.832031 14.0625 -0.703125 13.8125 -0.546875 C 13.5625 -0.398438 12.988281 -0.195312 12.09375 0.0625 C 11.207031 0.320312 10.253906 0.453125 9.234375 0.453125 C 6.960938 0.453125 4.96875 -0.34375 3.25 -1.9375 C 1.539062 -3.53125 0.6875 -5.441406 0.6875 -7.671875 C 0.6875 -9.910156 1.539062 -11.835938 3.25 -13.453125 C 4.96875 -15.066406 6.960938 -15.875 9.234375 -15.875 C 10.253906 -15.875 11.191406 -15.753906 12.046875 -15.515625 C 12.910156 -15.273438 13.523438 -15.035156 13.890625 -14.796875 L 14.40625 -14.4375 L 12.59375 -10.796875 C 11.9375 -11.273438 11.078125 -11.515625 10.015625 -11.515625 Z M 10.015625 -11.515625 "/></g></g></g><g fill="#000000" fill-opacity="1"><g transform="translate(74.520293, 24.239559)"><g><path d="M 2.703125 -15.421875 L 2.703125 -21.15625 L 8.03125 -21.15625 L 8.03125 -15.421875 L 11.265625 -15.421875 L 11.265625 -11.359375 L 8.03125 -11.359375 L 8.03125 -6.46875 C 8.03125 -5.039062 8.429688 -4.328125 9.234375 -4.328125 C 9.429688 -4.328125 9.640625 -4.363281 9.859375 -4.4375 C 10.078125 -4.519531 10.25 -4.601562 10.375 -4.6875 L 10.546875 -4.8125 L 11.875 -0.515625 C 10.726562 0.128906 9.425781 0.453125 7.96875 0.453125 C 6.96875 0.453125 6.101562 0.28125 5.375 -0.0625 C 4.65625 -0.414062 4.109375 -0.890625 3.734375 -1.484375 C 3.367188 -2.078125 3.101562 -2.695312 2.9375 -3.34375 C 2.78125 -4 2.703125 -4.695312 2.703125 -5.4375 L 2.703125 -11.359375 L 0.484375 -11.359375 L 0.484375 -15.421875 Z M 2.703125 -15.421875 "/></g></g></g><g fill="#000000" fill-opacity="1"><g transform="translate(83.627124, 24.239559)"><g><path d="M 2.84375 -1.90625 C 1.40625 -3.476562 0.6875 -5.40625 0.6875 -7.6875 C 0.6875 -9.976562 1.40625 -11.914062 2.84375 -13.5 C 4.289062 -15.082031 6.128906 -15.875 8.359375 -15.875 C 10.398438 -15.875 12.082031 -15.234375 13.40625 -13.953125 L 13.40625 -15.421875 L 18.734375 -15.421875 L 18.734375 0 L 13.46875 0 L 13.46875 -1.75 L 13.40625 -1.75 C 12.082031 -0.28125 10.398438 0.453125 8.359375 0.453125 C 6.128906 0.453125 4.289062 -0.332031 2.84375 -1.90625 Z M 7.375 -10.3125 C 6.6875 -9.632812 6.34375 -8.765625 6.34375 -7.703125 C 6.34375 -6.640625 6.671875 -5.769531 7.328125 -5.09375 C 7.992188 -4.425781 8.867188 -4.09375 9.953125 -4.09375 C 10.992188 -4.09375 11.847656 -4.429688 12.515625 -5.109375 C 13.191406 -5.785156 13.53125 -6.648438 13.53125 -7.703125 C 13.53125 -8.765625 13.179688 -9.632812 12.484375 -10.3125 C 11.796875 -10.988281 10.953125 -11.328125 9.953125 -11.328125 C 8.929688 -11.328125 8.070312 -10.988281 7.375 -10.3125 Z M 7.375 -10.3125 "/></g></g></g><g clip-path="url(#aa086f5f7a)"><g fill="#000000" fill-opacity="1"><g transform="translate(101.390657, 24.239559)"><g><path d="M 5.234375 -6.4375 C 6.191406 -6.4375 7.003906 -6.097656 7.671875 -5.421875 C 8.347656 -4.753906 8.6875 -3.9375 8.6875 -2.96875 C 8.6875 -2.03125 8.347656 -1.222656 7.671875 -0.546875 C 7.003906 0.117188 6.191406 0.453125 5.234375 0.453125 C 4.285156 0.453125 3.472656 0.117188 2.796875 -0.546875 C 2.128906 -1.222656 1.796875 -2.03125 1.796875 -2.96875 C 1.796875 -3.9375 2.128906 -4.753906 2.796875 -5.421875 C 3.472656 -6.097656 4.285156 -6.4375 5.234375 -6.4375 Z M 5.234375 -6.4375 "/></g></g></g></g><g fill="#000000" fill-opacity="1"><g transform="translate(3.033505, 5.21486)"><g><path d="M 0.625 -3.515625 L 0.625 -4.828125 L 1.828125 -4.828125 L 1.828125 -3.515625 L 2.578125 -3.515625 L 2.578125 -2.59375 L 1.828125 -2.59375 L 1.828125 -1.46875 C 1.828125 -1.144531 1.921875 -0.984375 2.109375 -0.984375 C 2.148438 -0.984375 2.195312 -0.992188 2.25 -1.015625 C 2.300781 -1.035156 2.335938 -1.050781 2.359375 -1.0625 L 2.40625 -1.09375 L 2.703125 -0.109375 C 2.441406 0.0351562 2.144531 0.109375 1.8125 0.109375 C 1.582031 0.109375 1.382812 0.0664062 1.21875 -0.015625 C 1.0625 -0.0976562 0.941406 -0.207031 0.859375 -0.34375 C 0.773438 -0.476562 0.710938 -0.617188 0.671875 -0.765625 C 0.640625 -0.910156 0.625 -1.066406 0.625 -1.234375 L 0.625 -2.59375 L 0.109375 -2.59375 L 0.109375 -3.515625 Z M 0.625 -3.515625 "/></g></g></g><g fill="#000000" fill-opacity="1"><g transform="translate(5.127646, 5.21486)"><g><path d="M 3.96875 -1.59375 L 1.421875 -1.59375 C 1.421875 -1.34375 1.5 -1.15625 1.65625 -1.03125 C 1.820312 -0.914062 2 -0.859375 2.1875 -0.859375 C 2.375 -0.859375 2.523438 -0.882812 2.640625 -0.9375 C 2.753906 -0.988281 2.882812 -1.09375 3.03125 -1.25 L 3.921875 -0.8125 C 3.554688 -0.195312 2.945312 0.109375 2.09375 0.109375 C 1.5625 0.109375 1.101562 -0.0703125 0.71875 -0.4375 C 0.34375 -0.800781 0.15625 -1.238281 0.15625 -1.75 C 0.15625 -2.269531 0.34375 -2.710938 0.71875 -3.078125 C 1.101562 -3.441406 1.5625 -3.625 2.09375 -3.625 C 2.644531 -3.625 3.097656 -3.460938 3.453125 -3.140625 C 3.804688 -2.816406 3.984375 -2.351562 3.984375 -1.75 C 3.984375 -1.664062 3.976562 -1.613281 3.96875 -1.59375 Z M 1.453125 -2.265625 L 2.796875 -2.265625 C 2.765625 -2.441406 2.691406 -2.578125 2.578125 -2.671875 C 2.460938 -2.773438 2.3125 -2.828125 2.125 -2.828125 C 1.925781 -2.828125 1.765625 -2.773438 1.640625 -2.671875 C 1.523438 -2.566406 1.460938 -2.429688 1.453125 -2.265625 Z M 1.453125 -2.265625 "/></g></g></g><g clip-path="url(#9933a5ade5)"><path fill="#ff7203" d="M 34.808594 16.308594 L 31.363281 16.308594 C 25.464844 15.035156 24.15625 13.71875 22.878906 7.808594 L 22.878906 4.5 L 22.441406 4.5 L 22.441406 7.84375 C 21.167969 13.722656 19.851562 15.035156 13.964844 16.308594 L 11.449219 16.308594 L 11.449219 16.746094 L 13.964844 16.746094 C 19.851562 18.019531 21.167969 19.332031 22.441406 25.210938 L 22.441406 28.496094 L 22.878906 28.496094 L 22.878906 25.246094 C 24.15625 19.339844 25.464844 18.023438 31.363281 16.746094 L 34.808594 16.746094 Z M 34.808594 16.308594 " fill-opacity="1" fill-rule="nonzero"/></g></svg>