<svg xmlns="http://www.w3.org/2000/svg" xmlns:xlink="http://www.w3.org/1999/xlink" width="70" zoomAndPan="magnify" viewBox="0 0 52.5 52.499999" height="70" preserveAspectRatio="xMidYMid meet" version="1.0"><defs><clipPath id="1f55004891"><path d="M 0.589844 0 L 51.109375 0 L 51.109375 52 L 0.589844 52 Z M 0.589844 0 " clip-rule="nonzero"/></clipPath></defs><g clip-path="url(#1f55004891)"><path fill="#ffffff" d="M 43.542969 7.933594 C 38.816406 3.183594 32.523438 0.570312 25.835938 0.570312 C 12.035156 0.570312 0.804688 11.835938 0.804688 25.683594 C 0.804688 30.105469 1.953125 34.425781 4.140625 38.238281 L 0.589844 51.25 L 13.863281 47.753906 C 17.515625 49.753906 21.632812 50.808594 25.824219 50.808594 L 25.835938 50.808594 C 39.628906 50.808594 51.109375 39.539062 51.109375 25.695312 C 51.109375 18.984375 48.265625 12.683594 43.542969 7.933594 Z M 25.835938 46.578125 C 22.09375 46.578125 18.429688 45.570312 15.238281 43.667969 L 14.480469 43.21875 L 6.609375 45.285156 L 8.707031 37.582031 L 8.210938 36.792969 C 6.125 33.464844 5.03125 29.632812 5.03125 25.683594 C 5.03125 14.179688 14.367188 4.8125 25.847656 4.8125 C 31.40625 4.8125 36.628906 6.984375 40.554688 10.933594 C 44.476562 14.878906 46.890625 20.117188 46.878906 25.695312 C 46.878906 37.210938 37.304688 46.578125 25.835938 46.578125 Z M 37.25 30.941406 C 36.628906 30.625 33.550781 29.109375 32.976562 28.90625 C 32.398438 28.691406 31.984375 28.589844 31.566406 29.222656 C 31.148438 29.855469 29.953125 31.261719 29.582031 31.691406 C 29.21875 32.109375 28.847656 32.164062 28.226562 31.847656 C 24.550781 30.003906 22.136719 28.554688 19.714844 24.382812 C 19.070312 23.273438 20.355469 23.351562 21.550781 20.953125 C 21.753906 20.535156 21.652344 20.175781 21.496094 19.855469 C 21.335938 19.539062 20.085938 16.453125 19.566406 15.195312 C 19.058594 13.976562 18.542969 14.144531 18.15625 14.121094 C 17.796875 14.097656 17.378906 14.097656 16.960938 14.097656 C 16.546875 14.097656 15.867188 14.257812 15.292969 14.878906 C 14.71875 15.511719 13.105469 17.027344 13.105469 20.117188 C 13.105469 23.207031 15.351562 26.191406 15.65625 26.609375 C 15.96875 27.027344 20.0625 33.363281 26.34375 36.089844 C 30.3125 37.808594 31.871094 37.957031 33.855469 37.664062 C 35.0625 37.480469 37.554688 36.148438 38.070312 34.675781 C 38.589844 33.207031 38.589844 31.949219 38.433594 31.691406 C 38.285156 31.40625 37.871094 31.25 37.25 30.941406 Z M 37.25 30.941406 " fill-opacity="1" fill-rule="nonzero"/></g></svg>