<svg xmlns="http://www.w3.org/2000/svg" xmlns:xlink="http://www.w3.org/1999/xlink" width="300" zoomAndPan="magnify" viewBox="0 0 224.87999 60" height="80" preserveAspectRatio="xMidYMid meet" version="1.0"><defs><g/><clipPath id="704bb43ead"><path d="M 209 36 L 224.761719 36 L 224.761719 52 L 209 52 Z M 209 36 " clip-rule="nonzero"/></clipPath><clipPath id="c62a8b03f7"><path d="M 3 0.015625 L 9 0.015625 L 9 11 L 3 11 Z M 3 0.015625 " clip-rule="nonzero"/></clipPath><clipPath id="c15d98f75e"><path d="M 20.398438 9.308594 L 68.636719 9.308594 L 68.636719 59 L 20.398438 59 Z M 20.398438 9.308594 " clip-rule="nonzero"/></clipPath></defs><g fill="#ffffff" fill-opacity="1"><g transform="translate(-1.24035, 50.084366)"><g><path d="M 20.671875 -23.78125 C 18.609375 -23.78125 16.832031 -23.015625 15.34375 -21.484375 C 13.851562 -19.953125 13.109375 -18.109375 13.109375 -15.953125 C 13.109375 -13.765625 13.851562 -11.90625 15.34375 -10.375 C 16.832031 -8.84375 18.609375 -8.078125 20.671875 -8.078125 C 21.671875 -8.078125 22.613281 -8.195312 23.5 -8.4375 C 24.394531 -8.6875 25.046875 -8.9375 25.453125 -9.1875 L 26.015625 -9.5625 L 29.75 -1.921875 C 29.457031 -1.710938 29.050781 -1.453125 28.53125 -1.140625 C 28.007812 -0.835938 26.828125 -0.414062 24.984375 0.125 C 23.148438 0.664062 21.175781 0.9375 19.0625 0.9375 C 14.382812 0.9375 10.273438 -0.707031 6.734375 -4 C 3.191406 -7.289062 1.421875 -11.234375 1.421875 -15.828125 C 1.421875 -20.460938 3.191406 -24.445312 6.734375 -27.78125 C 10.273438 -31.113281 14.382812 -32.78125 19.0625 -32.78125 C 21.175781 -32.78125 23.117188 -32.53125 24.890625 -32.03125 C 26.671875 -31.539062 27.9375 -31.046875 28.6875 -30.546875 L 29.75 -29.8125 L 26.015625 -22.296875 C 24.648438 -23.285156 22.867188 -23.78125 20.671875 -23.78125 Z M 20.671875 -23.78125 "/></g></g></g><g fill="#ffffff" fill-opacity="1"><g transform="translate(23.530727, 50.084366)"><g><path d="M 6.734375 -3.78125 C 3.191406 -6.925781 1.421875 -10.960938 1.421875 -15.890625 C 1.421875 -20.816406 3.265625 -24.863281 6.953125 -28.03125 C 10.640625 -31.195312 15.191406 -32.78125 20.609375 -32.78125 C 25.953125 -32.78125 30.453125 -31.1875 34.109375 -28 C 37.773438 -24.8125 39.609375 -20.773438 39.609375 -15.890625 C 39.609375 -11.003906 37.816406 -6.976562 34.234375 -3.8125 C 30.660156 -0.644531 26.117188 0.9375 20.609375 0.9375 C 14.898438 0.9375 10.273438 -0.632812 6.734375 -3.78125 Z M 15.25 -21.296875 C 13.820312 -19.890625 13.109375 -18.085938 13.109375 -15.890625 C 13.109375 -13.703125 13.789062 -11.910156 15.15625 -10.515625 C 16.519531 -9.128906 18.316406 -8.4375 20.546875 -8.4375 C 22.703125 -8.4375 24.472656 -9.140625 25.859375 -10.546875 C 27.242188 -11.960938 27.9375 -13.742188 27.9375 -15.890625 C 27.9375 -18.085938 27.222656 -19.890625 25.796875 -21.296875 C 24.367188 -22.703125 22.617188 -23.40625 20.546875 -23.40625 C 18.441406 -23.40625 16.675781 -22.703125 15.25 -21.296875 Z M 15.25 -21.296875 "/></g></g></g><g fill="#ffffff" fill-opacity="1"><g transform="translate(58.85653, 50.084366)"><g><path d="M 3.71875 0 L 3.71875 -31.859375 L 14.71875 -31.859375 L 14.71875 -28.5 L 14.84375 -28.5 C 17.695312 -31.351562 20.738281 -32.78125 23.96875 -32.78125 C 25.539062 -32.78125 27.101562 -32.570312 28.65625 -32.15625 C 30.207031 -31.75 31.695312 -31.109375 33.125 -30.234375 C 34.550781 -29.367188 35.707031 -28.140625 36.59375 -26.546875 C 37.488281 -24.953125 37.9375 -23.097656 37.9375 -20.984375 L 37.9375 0 L 26.953125 0 L 26.953125 -18 C 26.953125 -19.65625 26.421875 -21.101562 25.359375 -22.34375 C 24.304688 -23.59375 22.929688 -24.21875 21.234375 -24.21875 C 19.578125 -24.21875 18.078125 -23.570312 16.734375 -22.28125 C 15.390625 -21 14.71875 -19.570312 14.71875 -18 L 14.71875 0 Z M 3.71875 0 "/></g></g></g><g fill="#ffffff" fill-opacity="1"><g transform="translate(94.182336, 50.084366)"><g><path d="M 35.953125 -14.40625 L 12.859375 -14.40625 C 12.859375 -12.164062 13.582031 -10.507812 15.03125 -9.4375 C 16.476562 -8.363281 18.050781 -7.828125 19.75 -7.828125 C 21.53125 -7.828125 22.9375 -8.0625 23.96875 -8.53125 C 25 -9.007812 26.175781 -9.953125 27.5 -11.359375 L 35.453125 -7.390625 C 32.140625 -1.835938 26.632812 0.9375 18.9375 0.9375 C 14.132812 0.9375 10.015625 -0.707031 6.578125 -4 C 3.140625 -7.289062 1.421875 -11.253906 1.421875 -15.890625 C 1.421875 -20.523438 3.140625 -24.5 6.578125 -27.8125 C 10.015625 -31.125 14.132812 -32.78125 18.9375 -32.78125 C 23.988281 -32.78125 28.097656 -31.320312 31.265625 -28.40625 C 34.429688 -25.488281 36.015625 -21.316406 36.015625 -15.890625 C 36.015625 -15.148438 35.992188 -14.65625 35.953125 -14.40625 Z M 13.15625 -20.484375 L 25.265625 -20.484375 C 25.023438 -22.140625 24.375 -23.410156 23.3125 -24.296875 C 22.257812 -25.191406 20.90625 -25.640625 19.25 -25.640625 C 17.425781 -25.640625 15.972656 -25.160156 14.890625 -24.203125 C 13.816406 -23.253906 13.238281 -22.015625 13.15625 -20.484375 Z M 13.15625 -20.484375 "/></g></g></g><g fill="#ffffff" fill-opacity="1"><g transform="translate(125.907116, 50.084366)"><g><path d="M 20.671875 -23.78125 C 18.609375 -23.78125 16.832031 -23.015625 15.34375 -21.484375 C 13.851562 -19.953125 13.109375 -18.109375 13.109375 -15.953125 C 13.109375 -13.765625 13.851562 -11.90625 15.34375 -10.375 C 16.832031 -8.84375 18.609375 -8.078125 20.671875 -8.078125 C 21.671875 -8.078125 22.613281 -8.195312 23.5 -8.4375 C 24.394531 -8.6875 25.046875 -8.9375 25.453125 -9.1875 L 26.015625 -9.5625 L 29.75 -1.921875 C 29.457031 -1.710938 29.050781 -1.453125 28.53125 -1.140625 C 28.007812 -0.835938 26.828125 -0.414062 24.984375 0.125 C 23.148438 0.664062 21.175781 0.9375 19.0625 0.9375 C 14.382812 0.9375 10.273438 -0.707031 6.734375 -4 C 3.191406 -7.289062 1.421875 -11.234375 1.421875 -15.828125 C 1.421875 -20.460938 3.191406 -24.445312 6.734375 -27.78125 C 10.273438 -31.113281 14.382812 -32.78125 19.0625 -32.78125 C 21.175781 -32.78125 23.117188 -32.53125 24.890625 -32.03125 C 26.671875 -31.539062 27.9375 -31.046875 28.6875 -30.546875 L 29.75 -29.8125 L 26.015625 -22.296875 C 24.648438 -23.285156 22.867188 -23.78125 20.671875 -23.78125 Z M 20.671875 -23.78125 "/></g></g></g><g fill="#ffffff" fill-opacity="1"><g transform="translate(150.678189, 50.084366)"><g><path d="M 5.59375 -31.859375 L 5.59375 -43.71875 L 16.578125 -43.71875 L 16.578125 -31.859375 L 23.28125 -31.859375 L 23.28125 -23.46875 L 16.578125 -23.46875 L 16.578125 -13.34375 C 16.578125 -10.40625 17.40625 -8.9375 19.0625 -8.9375 C 19.476562 -8.9375 19.910156 -9.019531 20.359375 -9.1875 C 20.816406 -9.351562 21.171875 -9.519531 21.421875 -9.6875 L 21.796875 -9.9375 L 24.53125 -1.0625 C 22.164062 0.269531 19.472656 0.9375 16.453125 0.9375 C 14.378906 0.9375 12.597656 0.578125 11.109375 -0.140625 C 9.617188 -0.867188 8.488281 -1.84375 7.71875 -3.0625 C 6.957031 -4.289062 6.410156 -5.578125 6.078125 -6.921875 C 5.753906 -8.265625 5.59375 -9.703125 5.59375 -11.234375 L 5.59375 -23.46875 L 1 -23.46875 L 1 -31.859375 Z M 5.59375 -31.859375 "/></g></g></g><g fill="#ffffff" fill-opacity="1"><g transform="translate(169.488934, 50.084366)"><g><path d="M 5.890625 -3.9375 C 2.910156 -7.1875 1.421875 -11.171875 1.421875 -15.890625 C 1.421875 -20.609375 2.910156 -24.601562 5.890625 -27.875 C 8.878906 -31.144531 12.671875 -32.78125 17.265625 -32.78125 C 21.484375 -32.78125 24.957031 -31.457031 27.6875 -28.8125 L 27.6875 -31.859375 L 38.6875 -31.859375 L 38.6875 0 L 27.8125 0 L 27.8125 -3.59375 L 27.6875 -3.59375 C 24.957031 -0.570312 21.484375 0.9375 17.265625 0.9375 C 12.671875 0.9375 8.878906 -0.6875 5.890625 -3.9375 Z M 15.25 -21.296875 C 13.820312 -19.890625 13.109375 -18.085938 13.109375 -15.890625 C 13.109375 -13.703125 13.789062 -11.910156 15.15625 -10.515625 C 16.519531 -9.128906 18.316406 -8.4375 20.546875 -8.4375 C 22.703125 -8.4375 24.472656 -9.140625 25.859375 -10.546875 C 27.242188 -11.960938 27.9375 -13.742188 27.9375 -15.890625 C 27.9375 -18.085938 27.222656 -19.890625 25.796875 -21.296875 C 24.367188 -22.703125 22.617188 -23.40625 20.546875 -23.40625 C 18.441406 -23.40625 16.675781 -22.703125 15.25 -21.296875 Z M 15.25 -21.296875 "/></g></g></g><g clip-path="url(#704bb43ead)"><g fill="#ffffff" fill-opacity="1"><g transform="translate(206.180652, 50.084366)"><g><path d="M 10.796875 -13.28125 C 12.785156 -13.28125 14.472656 -12.585938 15.859375 -11.203125 C 17.242188 -9.816406 17.9375 -8.128906 17.9375 -6.140625 C 17.9375 -4.203125 17.242188 -2.535156 15.859375 -1.140625 C 14.472656 0.242188 12.785156 0.9375 10.796875 0.9375 C 8.859375 0.9375 7.191406 0.242188 5.796875 -1.140625 C 4.410156 -2.535156 3.71875 -4.203125 3.71875 -6.140625 C 3.71875 -8.128906 4.410156 -9.816406 5.796875 -11.203125 C 7.191406 -12.585938 8.859375 -13.28125 10.796875 -13.28125 Z M 10.796875 -13.28125 "/></g></g></g></g><g clip-path="url(#c62a8b03f7)"><g fill="#ffffff" fill-opacity="1"><g transform="translate(3.017638, 10.787629)"><g><path d="M 1.28125 -7.28125 L 1.28125 -9.984375 L 3.78125 -9.984375 L 3.78125 -7.28125 L 5.328125 -7.28125 L 5.328125 -5.359375 L 3.78125 -5.359375 L 3.78125 -3.046875 C 3.78125 -2.378906 3.972656 -2.046875 4.359375 -2.046875 C 4.453125 -2.046875 4.550781 -2.0625 4.65625 -2.09375 C 4.757812 -2.132812 4.835938 -2.175781 4.890625 -2.21875 L 4.984375 -2.265625 L 5.609375 -0.234375 C 5.066406 0.0664062 4.453125 0.21875 3.765625 0.21875 C 3.285156 0.21875 2.875 0.132812 2.53125 -0.03125 C 2.195312 -0.195312 1.941406 -0.421875 1.765625 -0.703125 C 1.585938 -0.984375 1.460938 -1.273438 1.390625 -1.578125 C 1.316406 -1.890625 1.28125 -2.21875 1.28125 -2.5625 L 1.28125 -5.359375 L 0.234375 -5.359375 L 0.234375 -7.28125 Z M 1.28125 -7.28125 "/></g></g></g></g><g fill="#ffffff" fill-opacity="1"><g transform="translate(7.343219, 10.787629)"><g><path d="M 8.21875 -3.296875 L 2.9375 -3.296875 C 2.9375 -2.785156 3.101562 -2.40625 3.4375 -2.15625 C 3.769531 -1.90625 4.128906 -1.78125 4.515625 -1.78125 C 4.921875 -1.78125 5.238281 -1.832031 5.46875 -1.9375 C 5.707031 -2.050781 5.976562 -2.269531 6.28125 -2.59375 L 8.09375 -1.6875 C 7.34375 -0.414062 6.085938 0.21875 4.328125 0.21875 C 3.234375 0.21875 2.289062 -0.15625 1.5 -0.90625 C 0.71875 -1.664062 0.328125 -2.570312 0.328125 -3.625 C 0.328125 -4.6875 0.71875 -5.59375 1.5 -6.34375 C 2.289062 -7.101562 3.234375 -7.484375 4.328125 -7.484375 C 5.484375 -7.484375 6.421875 -7.148438 7.140625 -6.484375 C 7.867188 -5.816406 8.234375 -4.863281 8.234375 -3.625 C 8.234375 -3.457031 8.226562 -3.347656 8.21875 -3.296875 Z M 3 -4.6875 L 5.78125 -4.6875 C 5.71875 -5.0625 5.566406 -5.347656 5.328125 -5.546875 C 5.085938 -5.753906 4.773438 -5.859375 4.390625 -5.859375 C 3.984375 -5.859375 3.65625 -5.75 3.40625 -5.53125 C 3.15625 -5.3125 3.019531 -5.03125 3 -4.6875 Z M 3 -4.6875 "/></g></g></g><g clip-path="url(#c15d98f75e)"><path fill="#4f2e65" d="M 68.65625 33.703125 L 61.539062 33.703125 C 49.355469 31.066406 46.644531 28.347656 44.007812 16.148438 L 44.007812 9.308594 L 43.109375 9.308594 L 43.109375 16.21875 C 40.476562 28.359375 37.753906 31.074219 25.59375 33.703125 L 20.402344 33.703125 L 20.402344 34.605469 L 25.59375 34.605469 C 37.753906 37.238281 40.476562 39.949219 43.109375 52.089844 L 43.109375 58.875 L 44.007812 58.875 L 44.007812 52.164062 C 46.644531 39.960938 49.355469 37.242188 61.539062 34.605469 L 68.65625 34.605469 Z M 68.65625 33.703125 " fill-opacity="1" fill-rule="nonzero"/></g></svg>